<svg width="61" height="87" viewBox="0 0 61 87" fill="none" xmlns="http://www.w3.org/2000/svg">
<path d="M15.1217 69.2858C18.0663 66.1751 19.3852 63.2937 20.8575 56.0246C21.5017 52.5538 22.2072 48.952 22.2072 48.952L22.6366 46.398L23.5261 41.8793L23.6795 40.7988L24.753 34.7739C24.753 34.7739 25.3972 31.3031 26.1026 27.7013C27.5749 20.4977 27.7896 19.5809 29.2313 15.7826C30.6116 12.1153 31.9612 9.3321 33.8629 6.31968C31.225 7.10553 29.0472 8.48076 25.9186 11.395C21.8391 15.3569 20.2441 17.8127 17.2995 25.442C16.7474 26.7517 16.2873 28.127 15.8885 29.3712C14.7229 33.3005 14.2935 34.9049 14.1402 36.0837C13.8641 38.0811 13.588 40.0457 13.588 40.0457L13.5267 40.2421C13.588 40.5696 13.4347 40.7988 13.22 41.028C12.7599 41.4537 12.2691 41.4537 11.9624 41.159C11.533 40.6351 11.2262 38.8669 12.4225 33.9881C13.0666 31.0084 13.7721 28.0288 13.7721 28.0288C13.7721 28.0288 13.8334 27.8323 13.8948 27.6358C14.1708 26.6863 14.4469 25.8022 14.815 24.9181C18.097 16.6339 21.9618 11.8206 28.1884 7.85863L28.2497 7.7604C28.2497 7.7604 30.7956 6.41791 33.3108 5.00993C36.3167 3.34 36.6848 3.1108 38.5252 0.655019C38.8319 0.393069 39.1387 0.163864 39.4454 0.0656325C39.9362 -0.0325986 40.2429 0.294838 40.1202 0.589532C40.0282 1.04794 39.9055 1.34264 39.7215 1.7683L39.0466 2.94708C39.6294 2.8161 40.1202 2.71787 40.703 2.61964C46.8376 1.70282 49.2301 4.25682 48.954 12.5737C48.8927 14.833 48.3406 17.8455 47.0523 22.9207C45.7027 27.865 44.1384 31.3359 41.8992 34.5447C41.4698 35.1341 41.1324 35.5925 41.1324 35.5925L39.7215 37.4589L38.0038 39.62L37.2983 40.5696C37.7891 40.4714 38.2185 40.5041 38.6479 40.5041C42.2366 40.8315 43.4329 43.4183 42.0219 49.9998C41.4391 52.6848 40.0589 56.352 37.697 60.8052C37.2369 61.6565 36.8382 62.4751 36.8382 62.4751C36.8382 62.4751 36.102 63.7521 35.4579 65.0291C34.139 67.3867 33.5255 68.369 32.8814 69.2203C32.3088 69.8752 31.7567 70.5628 31.225 71.2832C29.3846 73.6735 29.2313 73.8044 27.0228 74.4266C25.9493 74.7213 24.1089 74.9505 21.7777 75.0159C21.3483 75.0814 20.9189 75.0814 20.5815 75.0159C20.3361 75.0159 20.1521 75.0159 20.1521 75.0159L17.8209 74.9177H15.3057H13.0666C13.0666 74.9177 12.8826 74.9177 12.8212 74.9177C12.3918 74.9177 11.9624 74.9832 11.5329 74.9505C7.05469 75.4416 4.5395 76.8823 3.34325 78.4868C1.22682 81.3682 6.04248 85.8868 11.8704 85.8214C17.7289 85.7559 43.893 77.1443 45.6413 76.162C46.0708 75.8673 49.7515 74.7213 50.273 74.4921C50.457 74.3938 50.7944 74.4921 50.8558 74.8522C50.9785 75.6381 63.5851 72.8876 59.5055 75.2452C44.0157 77.57 19.784 87.1311 10.8888 87.1311C-2.94472 87.1311 -0.337508 82.8417 1.28816 79.6001C1.90162 78.1921 3.18989 76.5222 5.18364 74.5248C6.44123 73.3133 8.00555 72.2327 10.7048 70.923C12.0544 70.2681 13.5267 69.8097 15.091 69.4168L15.1217 69.2858ZM21.4403 68.8929C23.4341 69.0239 25.5198 69.0566 25.5198 69.0566L25.6732 68.9911C31.4704 68.6964 33.5868 66.8955 36.3167 60.445C36.8689 59.1353 37.2676 57.7928 37.5743 56.483C39.1693 48.3626 37.9117 45.9395 33.4948 46.2342C32.9734 46.2342 32.4826 46.3325 31.8998 46.5617C31.1637 46.8236 30.5195 46.9873 29.7527 47.1511C29.5073 47.1511 29.2926 46.9873 29.3233 46.6272C29.3846 46.4307 29.446 46.2342 29.5073 46.136L29.5687 46.0378C29.5687 46.0378 31.4704 44.0732 33.4642 42.0758C36.4088 39.1289 38.1265 35.9527 39.8441 29.6004C40.0589 28.7491 40.2429 27.8978 40.4576 27.0792C40.7337 25.7039 41.1017 24.2632 41.1017 24.2632L41.6539 21.7747C41.6539 21.7747 42.1753 19.188 42.6967 16.5357C43.4942 12.5737 43.6476 11.395 43.5556 10.2489C43.3409 5.69755 42.8194 4.68249 41.1938 4.25683C38.4945 3.50372 36.4088 5.46834 34.7831 11.7879C34.3537 13.3923 34.0163 14.964 34.0163 14.964L33.5562 16.8304L33.0347 19.4172L32.5133 22.0039L32.2066 23.7393L31.7771 25.7694L30.6729 32.2527L29.9981 36.0182L29.5073 38.7687C29.5073 38.7687 28.8325 42.0758 28.2804 45.3829C27.2375 51.0803 26.9308 52.3573 26.2867 54.2237C24.6303 59.2662 23.1273 61.6893 19.3852 66.1424C19.0172 66.5353 18.7411 66.8955 18.7411 66.8955L18.097 67.6486L17.6982 68.3035L17.1461 69.0893C19.5386 68.9911 20.5815 68.9584 21.5017 68.9584L21.4403 68.8929Z" fill="white"/>
</svg>
