<svg width="16" height="36" viewBox="0 0 16 36" fill="none" xmlns="http://www.w3.org/2000/svg">
<path d="M1.00857 31.6873C0.701838 30.2466 0.425781 28.1182 0.487127 25.3023C0.5178 23.4031 0.793856 21.3403 1.46866 18.1969C2.17414 14.6933 2.91029 12.3685 3.73847 10.4366C5.42548 6.57286 6.80577 4.44452 8.64615 2.67636C11.4067 0.0568671 14.5354 0.286074 15.4862 2.44716C15.793 3.20026 15.9157 4.01885 15.977 5.52506C16.0383 6.3764 15.9463 7.32597 15.7623 8.34102C15.1488 11.9101 13.3698 15.2827 10.2105 18.4916C7.5726 21.242 7.14317 21.7332 6.68308 22.0934C6.46837 22.3553 6.28433 22.7483 5.82423 25.2368C5.54817 26.612 5.33346 27.9872 5.33346 27.9872V28.2492L5.21077 28.8713C5.21077 28.8713 5.05741 30.0501 4.90404 31.1961C4.78135 32.0802 4.75068 32.8661 4.81202 33.7174C4.90404 34.3723 5.67087 34.7652 6.62173 34.274C8.12471 33.4882 9.16759 31.9165 10.3638 27.2014C10.4559 26.6447 10.6092 26.1536 10.7012 25.6297C11.2227 22.519 11.5294 21.7332 11.9895 21.4058C12.2962 21.1111 12.6643 21.242 12.695 21.5695C12.787 22.1261 12.8177 22.8137 12.7563 23.4359C12.4496 25.1713 12.1122 26.9067 12.1122 26.9067C12.1122 26.9067 11.9895 27.2996 11.9588 27.5616C11.8055 28.2164 11.6521 28.7731 11.4067 29.4607C10.6092 31.4581 10.0264 32.6041 9.22894 33.5864C6.71375 36.5661 2.94097 36.6316 1.83674 34.2085C1.46867 33.4882 1.22328 32.6368 1.00857 31.7855V31.6873ZM11.4681 11.4844C11.6214 10.9278 11.8055 10.3384 11.8668 9.78175C11.8975 9.5198 11.9588 9.2251 11.9588 9.2251C11.9588 9.2251 12.1429 7.78438 12.4189 6.31091C12.7257 4.5755 12.5723 3.5277 12.1122 2.90557C11.7441 2.2507 10.8239 2.34893 10.3332 3.03654C10.0571 3.39672 9.87307 3.88788 9.75038 4.2808C9.3823 5.68878 9.10624 7.09676 9.10624 7.09676V7.35871L9.01422 7.62066L8.52346 10.3711L7.87932 13.3508L7.41923 15.8393L7.29654 16.7234C7.29654 16.7234 7.02048 18.7208 6.86712 19.8668C9.01423 17.804 10.3025 15.6429 11.4374 11.4517L11.4681 11.4844Z" fill="white"/>
</svg>
