<svg width="21" height="47" viewBox="0 0 21 47" fill="none" xmlns="http://www.w3.org/2000/svg">
<path d="M1.23424 40.8352C0.838173 38.9639 0.48171 36.1995 0.560924 32.542C0.600531 30.0753 0.956992 27.396 1.82834 23.3132C2.7393 18.7625 3.68987 15.743 4.75925 13.2337C6.93763 8.2153 8.71995 5.4509 11.0964 3.15433C14.661 -0.248008 18.7009 0.0496973 19.9287 2.85662C20.3248 3.83479 20.4832 4.89802 20.5624 6.85436C20.6416 7.96012 20.5228 9.19347 20.2852 10.5119C19.493 15.1476 17.1958 19.5281 13.1163 23.6959C9.71012 27.2684 9.15563 27.9063 8.56152 28.3741C8.28427 28.7144 8.04663 29.2247 7.45253 32.4569C7.09606 34.2431 6.81882 36.0294 6.81882 36.0294V36.3696L6.66038 37.1777C6.66038 37.1777 6.46236 38.7087 6.26432 40.1972C6.10589 41.3455 6.06628 42.3662 6.1455 43.472C6.26432 44.3226 7.25449 44.8329 8.48231 44.195C10.423 43.1743 11.7697 41.1329 13.3143 35.0087C13.4332 34.2857 13.6312 33.6477 13.75 32.9673C14.4233 28.927 14.8194 27.9063 15.4135 27.481C15.8096 27.0982 16.2849 27.2684 16.3245 27.6937C16.4433 28.4167 16.4829 29.3098 16.4037 30.1178C16.0076 32.3719 15.5719 34.6259 15.5719 34.6259C15.5719 34.6259 15.4135 35.1363 15.3739 35.4765C15.1759 36.3271 14.9778 37.0501 14.661 37.9432C13.6312 40.5375 12.8787 42.026 11.8489 43.3019C8.60113 47.172 3.72948 47.2571 2.30363 44.1099C1.82835 43.1743 1.51149 42.0685 1.23424 40.9628V40.8352ZM14.7402 14.5947C14.9382 13.8717 15.1759 13.1062 15.2551 12.3832C15.2947 12.0429 15.3739 11.6602 15.3739 11.6602C15.3739 11.6602 15.6115 9.78888 15.968 7.87506C16.3641 5.62102 16.166 4.26008 15.5719 3.45203C15.0967 2.60145 13.9084 2.72903 13.2747 3.62215C12.9183 4.08997 12.6806 4.72791 12.5222 5.23826C12.0469 7.06701 11.6905 8.89576 11.6905 8.89576V9.236L11.5716 9.57623L10.9379 13.1487L10.1062 17.0188L9.51209 20.2511L9.35365 21.3993C9.35365 21.3993 8.9972 23.9936 8.79916 25.4821C11.5716 22.8028 13.2351 19.9959 14.7006 14.5521L14.7402 14.5947Z" fill="black"/>
</svg>
