<svg width="14" height="39" viewBox="0 0 14 39" fill="none" xmlns="http://www.w3.org/2000/svg">
<path d="M3.21556 36.9697C3.67566 37.6573 4.47316 37.8865 5.42402 37.2971C6.98835 36.3148 8.46065 33.3024 8.12325 25.4439C8.0619 24.5926 8.03123 23.774 8.03123 22.8244C7.66315 17.9129 7.60181 16.996 7.44844 16.1774C7.38709 15.85 7.35642 15.5226 7.35642 15.5226L7.11104 14.5075L5.332 17.8146L3.61431 20.9908L3.55297 21.089C3.33826 21.351 3.00085 21.3837 2.78614 21.1872C2.6021 21.089 2.57143 20.9253 2.63278 20.7288C3.0622 19.7138 3.58364 18.7642 4.22777 17.8474C4.44248 17.5199 4.62652 17.0943 5.82277 14.442C6.31354 13.3287 6.80431 12.1172 6.80431 12.1172L7.81651 9.85791L9.59555 5.53575V5.27379C10.7611 1.18083 11.3439 0.394983 11.9574 0.591445C12.2028 0.591445 12.2641 0.820651 12.2028 1.0826C12.0801 1.80296 11.8347 2.58881 11.62 3.27643C11.0985 4.91361 11.0985 6.45257 11.8654 11.1349C12.1414 12.8376 12.4175 14.5403 12.4175 14.5403C12.4175 14.5403 12.6015 15.6863 12.7855 16.7341C12.8776 17.389 12.9389 18.1421 13.0616 18.8624C13.399 23.5448 13.0616 26.5572 12.1107 29.3732C10.4851 34.2192 8.79805 36.3803 6.09883 37.8538C3.18489 39.491 0.761726 38.3122 0.639034 35.0378C0.577688 33.0077 0.731053 31.4033 1.1298 30.0608C1.74326 27.9652 2.04999 27.2448 2.78614 26.459C3.67566 25.5421 4.87191 25.4439 5.48537 26.1643C6.34421 27.2121 6.49758 28.6201 5.63873 31.8289C5.20931 33.4334 4.31979 35.2998 3.21556 36.9042V36.9697Z" fill="white"/>
</svg>
