<svg width="17" height="50" viewBox="0 0 17 50" fill="none" xmlns="http://www.w3.org/2000/svg">
<path d="M3.45321 47.3051C4.04731 48.1982 5.0771 48.496 6.30491 47.7304C8.32486 46.4546 10.226 42.5419 9.79031 32.3349C9.7111 31.2291 9.6715 30.1659 9.6715 28.9325C9.19622 22.5532 9.117 21.3623 8.91897 20.2991C8.83975 19.8738 8.80014 19.4485 8.80014 19.4485L8.48329 18.1301L6.18609 22.4256L3.9681 26.5509L3.88889 26.6785C3.61164 27.0187 3.17596 27.0612 2.89871 26.8061C2.66107 26.6785 2.62147 26.4658 2.70068 26.2107C3.25518 24.8923 3.92849 23.6589 4.76024 22.4681C5.03748 22.0428 5.27513 21.4899 6.8198 18.0451C7.45351 16.5991 8.08722 15.0255 8.08722 15.0255L9.39424 12.091L11.6914 6.47713V6.1369C13.1965 0.820749 13.949 -0.199951 14.7412 0.055224C15.058 0.055224 15.1372 0.352929 15.058 0.693162C14.8996 1.6288 14.5828 2.6495 14.3055 3.54262C13.6322 5.66908 13.6322 7.66795 14.6224 13.7496C14.9788 15.9611 15.3353 18.1727 15.3353 18.1727C15.3353 18.1727 15.5729 19.6612 15.8106 21.0221C15.9294 21.8727 16.0086 22.8509 16.167 23.7865C16.6027 29.8682 16.167 33.7809 14.9392 37.4384C12.8401 43.7327 10.6617 46.5396 7.17626 48.4534C3.4136 50.5799 0.284663 49.0488 0.126236 44.7959C0.0470219 42.1591 0.245056 40.0752 0.759946 38.3315C1.55208 35.6096 1.94815 34.674 2.89871 33.6533C4.04731 32.4625 5.59199 32.3349 6.38413 33.2705C7.49312 34.6314 7.69115 36.4602 6.58216 40.6281C6.02766 42.712 4.87906 45.1361 3.45321 47.2201V47.3051Z" fill="black"/>
</svg>
