<svg width="24" height="46" viewBox="0 0 24 46" fill="none" xmlns="http://www.w3.org/2000/svg">
<path d="M1.45025 37.4272C0.935363 35.0456 0.856147 32.3237 1.173 28.8788C2.00475 18.927 4.38116 12.3775 8.6191 6.29584C13.0947 -0.211124 17.6891 -0.891589 19.9467 2.08545C23.1944 6.25331 24.3034 12.5051 22.0458 23.8604C20.818 30.5375 19.1545 34.7904 17.293 37.6824C13.57 43.5939 9.7281 45.7629 6.8368 45.125C4.53959 44.7422 2.51964 42.5732 1.45025 37.3847V37.4272ZM7.03483 43.1686C7.58932 44.402 9.33203 44.3169 10.9955 42.2755C12.2233 40.9571 13.6096 37.895 15.6691 27.9007C16.184 25.6891 16.6989 22.7546 17.2534 17.8638C17.6495 14.7166 17.8871 12.2074 18.0059 10.166C18.0059 8.83341 18.0455 7.44413 18.1248 5.99814C18.1644 4.97744 18.0455 4.04179 17.7683 3.02109C17.5703 1.8728 16.3028 1.53257 15.1938 2.17051C14.0056 2.93603 12.8966 4.33949 12.2233 6.38089C11.55 8.42229 10.9559 10.2936 10.9559 10.2936C10.9559 10.2936 10.8767 10.5488 10.7975 10.8039C10.3618 12.2925 10.1242 13.6109 9.84691 15.2695C9.68849 16.2051 9.49046 17.1833 9.49046 17.1833L8.46068 23.2224C8.46068 23.2224 7.74775 27.1351 7.07444 31.0478C6.16348 37.0444 6.16348 39.8088 6.48033 41.595C6.67837 42.1905 6.75758 42.7008 7.07444 43.1686H7.03483Z" fill="black"/>
</svg>
