<svg width="35" height="35" viewBox="0 0 35 35" fill="none" xmlns="http://www.w3.org/2000/svg">
<path d="M17.5161 35C15.1978 35 12.8795 35 10.5612 35C5.69917 35 1.51334 31.7188 0.321987 27.0221C0.0965961 26.1857 0 25.3171 0 24.4807C0 19.8484 0 15.216 0 10.5515C0 5.56529 3.44526 1.31896 8.30727 0.257383C9.01564 0.0965376 9.72401 0.0321994 10.4324 3.03164e-05C15.1978 3.03164e-05 19.931 -0.0643079 24.6964 3.03164e-05C29.655 0.0643685 33.7121 3.5708 34.7102 8.23532C34.8712 9.00738 34.9678 9.84378 34.9678 10.648C34.9678 15.216 34.9678 19.784 34.9678 24.3521C34.9678 29.4348 31.5869 33.6489 26.6283 34.7427C25.9522 34.9035 25.2116 34.9679 24.5032 34.9679C22.1527 34.9679 19.8022 34.9679 17.4517 34.9679L17.5161 35ZM17.4839 31.6866C19.8022 31.6866 22.1205 31.6866 24.4388 31.6866C24.8574 31.6866 25.2438 31.6866 25.6302 31.5901C29.2364 30.9789 31.7157 27.8585 31.6835 24.4164C31.6835 19.784 31.6835 15.1839 31.6835 10.5515C31.6835 9.48992 31.4903 8.46051 31.0074 7.49543C29.6872 4.88974 27.5621 3.37779 24.632 3.34562C19.8666 3.28128 15.069 3.34562 10.3036 3.34562C9.9816 3.34562 9.62742 3.37779 9.30543 3.44213C5.82797 4.05334 3.31647 7.0129 3.31647 10.5515C3.31647 15.216 3.31647 19.8484 3.31647 24.5129C3.31647 26.8612 4.28243 28.7592 6.11776 30.2068C7.4057 31.2362 8.88684 31.7188 10.529 31.7188C12.8473 31.7188 15.1656 31.7188 17.4839 31.7188V31.6866Z" fill="black"/>
</svg>
