<svg width="18" height="35" viewBox="0 0 18 35" fill="none" xmlns="http://www.w3.org/2000/svg">
<path d="M1.03972 28.7627C0.640975 26.9291 0.579627 24.8335 0.825011 22.1812C1.46914 14.5192 3.30953 9.47666 6.59154 4.79431C10.0576 -0.215473 13.6157 -0.739372 15.364 1.55269C17.8792 4.76157 18.7381 9.57489 16.9897 18.3175C16.0388 23.4582 14.7506 26.7326 13.3089 28.9592C10.4257 33.5105 7.45039 35.1805 5.21126 34.6893C3.43222 34.3946 1.8679 32.7247 1.03972 28.73V28.7627ZM5.36462 33.1831C5.79404 34.1327 7.14365 34.0672 8.43192 32.4955C9.38278 31.4804 10.4563 29.1229 12.0513 21.4281C12.4501 19.7254 12.8488 17.4661 13.2783 13.7006C13.585 11.2776 13.769 9.34569 13.861 7.77399C13.861 6.74802 13.8917 5.67839 13.9531 4.56511C13.9837 3.77926 13.8917 3.05889 13.677 2.27305C13.5236 1.38897 12.5421 1.12702 11.6833 1.61817C10.7631 2.20756 9.90422 3.2881 9.38278 4.8598C8.86134 6.4315 8.40125 7.87222 8.40125 7.87222C8.40125 7.87222 8.3399 8.06868 8.27856 8.26514C7.94116 9.41117 7.75711 10.4262 7.5424 11.7032C7.41971 12.4236 7.26635 13.1767 7.26635 13.1767L6.46885 17.8263C6.46885 17.8263 5.91673 20.8387 5.39529 23.8511C4.68981 28.468 4.68982 30.5963 4.9352 31.9716C5.08856 32.43 5.14991 32.8229 5.39529 33.1831H5.36462Z" fill="white"/>
</svg>
