<svg width="78" height="113" viewBox="0 0 78 113" fill="none" xmlns="http://www.w3.org/2000/svg">
<path d="M19.5261 89.9918C23.3284 85.9515 25.0315 82.2089 26.9326 72.7675C27.7644 68.2594 28.6753 63.5812 28.6753 63.5812L29.2298 60.2639L30.3784 54.3949L30.5765 52.9914L31.9627 45.166C31.9627 45.166 32.7944 40.6579 33.7054 35.9797C35.6065 26.6233 35.8838 25.4325 37.7453 20.4991C39.5276 15.7358 41.2703 12.1209 43.726 8.20818C40.3198 9.22888 37.5077 11.0151 33.4678 14.8002C28.2 19.9462 26.1405 23.1359 22.3382 33.0452C21.6253 34.7464 21.0312 36.5326 20.5163 38.1487C19.0112 43.2522 18.4567 45.3361 18.2587 46.8672C17.9023 49.4615 17.5458 52.0132 17.5458 52.0132L17.4666 52.2684C17.5458 52.6937 17.3478 52.9914 17.0705 53.2891C16.4764 53.842 15.8427 53.842 15.4466 53.4592C14.8921 52.7787 14.4961 50.4822 16.0407 44.1453C16.8725 40.2752 17.7834 36.405 17.7834 36.405C17.7834 36.405 17.8626 36.1498 17.9419 35.8947C18.2983 34.6613 18.6548 33.513 19.1301 32.3647C23.368 21.6049 28.3585 15.3531 36.3987 10.207L36.4779 10.0795C36.4779 10.0795 39.7653 8.33576 43.013 6.50701C46.8945 4.33802 47.3698 4.04032 49.7462 0.850632C50.1423 0.510398 50.5383 0.212694 50.9344 0.0851065C51.5681 -0.042481 51.9642 0.382811 51.8058 0.765573C51.6869 1.36098 51.5285 1.74374 51.2909 2.29662L50.4195 3.82767C51.1721 3.65756 51.8058 3.52997 52.5583 3.40238C60.4797 2.21157 63.569 5.52884 63.2126 16.3312C63.1333 19.2658 62.4204 23.1784 60.7569 29.7705C59.0142 36.1924 56.9943 40.7005 54.103 44.8683C53.5485 45.6338 53.1128 46.2293 53.1128 46.2293L51.2909 48.6534L49.0729 51.4603L48.1619 52.6937C48.7956 52.5661 49.3501 52.6086 49.9046 52.6086C54.5386 53.0339 56.0833 56.3937 54.2614 64.9421C53.5089 68.4295 51.7265 73.1927 48.6768 78.9767C48.0827 80.0825 47.5678 81.1457 47.5678 81.1457C47.5678 81.1457 46.6173 82.8043 45.7855 84.463C44.0824 87.5251 43.2903 88.8009 42.4585 89.9067C41.7192 90.7573 41.0063 91.6504 40.3198 92.586C37.9433 95.6907 37.7453 95.8608 34.8936 96.6688C33.5074 97.0516 31.131 97.3493 28.1208 97.4344C27.5663 97.5194 27.0118 97.5194 26.5762 97.4344C26.2593 97.4344 26.0217 97.4344 26.0217 97.4344L23.0115 97.3068H19.7638H16.8725C16.8725 97.3068 16.6348 97.3068 16.5556 97.3068C16.0011 97.3068 15.4466 97.3918 14.8921 97.3493C9.10952 97.9872 5.86175 99.8585 4.31708 101.942C1.58421 105.685 7.80249 111.554 15.3278 111.469C22.8927 111.384 56.6774 100.199 58.935 98.9229C59.4895 98.5401 64.2423 97.0516 64.9156 96.7539C65.1533 96.6263 65.589 96.7539 65.6682 97.2217C65.8266 98.2424 82.105 94.67 76.8373 97.7321C56.8358 100.752 25.5464 113.17 14.0604 113.17C-3.80233 113.17 -0.435745 107.599 1.66342 103.388C2.45556 101.56 4.11905 99.3907 6.6935 96.7964C8.31738 95.2229 10.3373 93.8194 13.8227 92.1182C15.5654 91.2676 17.4666 90.6722 19.4865 90.1619L19.5261 89.9918ZM27.6852 89.4814C30.2596 89.6515 32.9529 89.6941 32.9529 89.6941L33.1509 89.609C40.6366 89.2262 43.3695 86.8871 46.8945 78.5089C47.6074 76.8077 48.1223 75.064 48.5184 73.3629C50.5779 62.8156 48.9541 59.6685 43.2507 60.0512C42.5774 60.0512 41.9436 60.1788 41.1911 60.4765C40.2405 60.8168 39.4088 61.0294 38.4186 61.2421C38.1018 61.2421 37.8245 61.0294 37.8641 60.5616C37.9433 60.3064 38.0226 60.0512 38.1018 59.9236L38.181 59.7961C38.181 59.7961 40.6366 57.2443 43.2111 54.65C47.0133 50.8224 49.2313 46.6971 51.4493 38.4464C51.7265 37.3407 51.9642 36.2349 52.2414 35.1717C52.5979 33.3854 53.0732 31.5142 53.0732 31.5142L53.7861 28.2819C53.7861 28.2819 54.4594 24.9221 55.1327 21.4773C56.1625 16.3312 56.3606 14.8002 56.2417 13.3117C55.9645 7.40012 55.2912 6.08172 53.192 5.52884C49.7066 4.55067 47.0133 7.10242 44.9142 15.3105C44.3597 17.3945 43.924 19.4359 43.924 19.4359L43.3299 21.86L42.6566 25.2198L41.9832 28.5796L41.5872 30.8337L41.0327 33.4705L39.6068 41.8913L38.7355 46.7821L38.1018 50.3546C38.1018 50.3546 37.2304 54.65 36.5175 58.9455C35.1709 66.3456 34.7748 68.0042 33.943 70.4283C31.8043 76.9778 29.8635 80.125 25.0315 85.909C24.5562 86.4193 24.1997 86.8871 24.1997 86.8871L23.368 87.8653L22.8531 88.7159L22.1402 89.7366C25.2295 89.609 26.5762 89.5665 27.7644 89.5665L27.6852 89.4814Z" fill="black"/>
</svg>
